<svg width="10" height="14" viewBox="0 0 10 14" fill="none" xmlns="http://www.w3.org/2000/svg">
<path fill-rule="evenodd" clip-rule="evenodd" d="M4.99999 1.64706C6.37833 1.64706 7.49999 2.75553 7.49999 4.11765C7.49999 5.47976 6.37833 6.58824 4.99999 6.58824C3.62166 6.58824 2.49999 5.47976 2.49999 4.11765C2.49999 2.75553 3.62166 1.64706 4.99999 1.64706ZM4.99999 0C2.69666 0 0.833328 1.84306 0.833328 4.11765C0.833328 6.39224 2.69666 8.23529 4.99999 8.23529C7.30333 8.23529 9.16666 6.39224 9.16666 4.11765C9.16666 1.84306 7.30333 0 4.99999 0Z" fill="#00A9FF"/>
<path fill-rule="evenodd" clip-rule="evenodd" d="M5 10.7057C6.68417 10.7057 7.75083 11.3406 8.1525 11.8957C7.58333 12.1098 6.51167 12.3527 5 12.3527C3.34667 12.3527 2.32833 12.1015 1.81833 11.9064C2.20083 11.3175 3.29917 10.7057 5 10.7057ZM5 9.05859C1.875 9.05859 0 10.7057 0 12.3527C0 13.1762 1.875 13.9998 5 13.9998C7.93167 13.9998 10 13.1762 10 12.3527C10 10.7057 8.03833 9.05859 5 9.05859Z" fill="#00A9FF"/>
</svg>
