<svg width="62" height="62" viewBox="0 0 62 62" fill="none" xmlns="http://www.w3.org/2000/svg">
<path fill-rule="evenodd" clip-rule="evenodd" d="M27.99 3.0924L27.9606 11.5878C26.5267 10.5543 22.725 10.0166 20.587 11.5022C20.5493 11.5287 20.5117 11.5561 20.4749 11.5844C19.6191 12.1717 20.4059 13.2882 21.0622 12.9911C22.5228 12.3284 25.1985 11.6905 26.7308 12.8892C28.2235 14.0588 28.0764 15.9956 28.0746 17.6395L28.0268 49.5404C26.4192 48.0309 22.066 47.6088 19.9114 48.2638C19.4886 48.3922 18.825 48.6525 18.6825 49.0858C18.5097 49.6132 18.745 50.4043 19.6982 50.293C19.7386 50.2879 19.7772 50.2742 19.8168 50.2656C22.5063 49.6646 26.41 49.7956 28.0195 52.6082L28.0783 58.7225C24.8878 60.5103 20.2074 59.029 17.176 55.7874C16.8239 55.4843 16.4131 55.2214 15.9342 55.1598C11.5736 54.6015 11.228 49.0292 13.2015 46.8913C17.8911 46.7783 24.6415 45.0478 25.8373 38.4019C25.8456 38.3548 25.853 38.306 25.8622 38.2581C26.1434 36.7708 23.9319 36.4934 23.6745 37.6587C21.9897 46.6387 5.56774 47.0171 3.00968 37.246C2.2054 34.1705 2.04271 28.5092 5.6091 26.9706C10.9578 26.8738 17.8047 32.0102 16.7872 36.5568C16.7715 36.6252 16.7623 36.698 16.7357 36.7648C16.0619 38.4849 18.3865 39.0586 18.9022 37.1921C18.9206 37.1278 18.9399 37.0645 18.9564 37.0011C20.7102 30.6626 13.5167 26.0544 7.62393 24.8429C4.25608 24.151 3.74685 11.509 11.2096 12.6606C11.8834 16.2935 14.537 21.7416 24.0054 21.0104C24.9807 20.9351 25.3676 19.846 24.4862 19.2372C23.7959 19.1387 23.2306 19.1113 22.7397 19.1148C11.2602 19.1798 11.7354 6.49329 16.4177 5.54888C17.7256 5.87253 18.3672 6.88116 19.8057 6.50185C21.5457 6.04292 21.3077 4.67383 21.6478 3.46999C23.4181 1.81921 25.9449 1.96048 27.99 3.0924ZM9.69391 46.0616L10.4504 46.7594C8.97972 49.7484 8.86298 55.5279 14.5398 57.1752C15.0839 57.3336 15.6161 57.7489 16.2504 58.3337C19.8499 61.655 25.5202 62.7287 30.1483 60.4032V1.65391C28.1831 -0.646744 20.2708 -1.1502 18.984 4.1318C13.1482 1.84913 10.8769 7.12855 10.9955 10.1904C3.16411 9.99773 0.000313391 19.4118 4.24506 25.0543C-4.3823 31.4648 1.51879 46.2645 9.69391 46.0616Z" fill="#1EBFFA"/>
<path fill-rule="evenodd" clip-rule="evenodd" d="M6.26364 44.4091C5.04482 41.4072 4.622 37.2117 8.61305 34.5121C8.6443 34.4907 8.67739 34.4701 8.70864 34.4487C9.69767 33.7672 10.6481 35.0721 9.88518 35.6286C7.76281 37.0859 7.06148 39.3514 7.39606 41.5921C7.51188 42.3045 7.91907 43.2275 8.70496 43.5409C9.42468 43.8286 10.0846 44.3166 10.7979 44.4159L7.00082 44.6403C6.89695 44.5307 6.79676 44.4065 6.69841 44.2695L6.26364 44.4091Z" fill="#1EBFFA"/>
<path fill-rule="evenodd" clip-rule="evenodd" d="M16.6189 29.743C18.1282 28.7584 21.7975 28.2815 23.8831 29.7319C23.9208 29.7576 23.9594 29.785 23.9962 29.8132C24.851 30.4006 24.0651 31.518 23.4088 31.22C21.9483 30.5573 19.2725 29.9194 17.7403 31.1181C17.1401 31.5882 16.8046 32.1824 16.6189 32.8314V29.743Z" fill="#1EBFFA"/>
<path fill-rule="evenodd" clip-rule="evenodd" d="M4.00867 21.2382C4.46274 19.5755 6.90958 16.9837 9.50624 16.815C9.55312 16.8116 9.60092 16.809 9.64871 16.8082C10.7076 16.7337 10.8942 18.0582 10.1883 18.2312C8.6174 18.6165 6.14299 19.7595 5.8222 21.5996C5.69627 22.3205 5.85804 22.9746 6.1724 23.58L4.00867 21.2382Z" fill="#1EBFFA"/>
<path fill-rule="evenodd" clip-rule="evenodd" d="M14.765 56.6359C16.5859 56.8945 20.1027 55.8071 21.282 53.646C21.304 53.6066 21.3243 53.5664 21.3445 53.5262C21.8316 52.6468 20.5954 51.9704 20.1486 52.5081C19.155 53.7051 17.0593 55.3816 15.1162 54.9398C14.3542 54.766 13.7705 54.3721 13.2953 53.8669L14.765 56.6359Z" fill="#1EBFFA"/>
<path fill-rule="evenodd" clip-rule="evenodd" d="M12.7824 37.0601C12.7897 37.103 12.798 37.1475 12.8035 37.1911C12.9864 38.1664 11.5893 38.4695 11.3365 37.8316C10.3567 35.3725 8.69939 34.1293 5.91153 33.7629C5.18906 33.6678 5.20837 32.3321 6.27001 32.2902C6.31781 32.2867 6.36561 32.2842 6.4134 32.2816C9.03029 32.1677 12.3448 34.6525 12.7824 37.0601Z" fill="#1EBFFA"/>
<path fill-rule="evenodd" clip-rule="evenodd" d="M18.8894 25.9037C18.9004 25.9466 18.9123 25.9902 18.9225 26.033C19.1909 26.9911 17.825 27.3996 17.5161 26.7839C16.323 24.4079 14.5619 23.2957 11.7511 23.1433C11.0231 23.1039 10.9247 21.7708 11.979 21.6484C12.0259 21.6415 12.0737 21.6347 12.1206 21.6295C14.7191 21.3153 18.2413 23.538 18.8894 25.9037Z" fill="#1EBFFA"/>
<path fill-rule="evenodd" clip-rule="evenodd" d="M19.0503 15.9682C19.0926 15.9879 19.1358 16.0076 19.179 16.0264C20.1248 16.4777 20.8482 15.3243 20.27 14.9099C18.0392 13.3105 17.2551 11.4671 17.7046 8.87874C17.8214 8.20746 16.4454 7.82902 16.0887 8.76144C16.0713 8.80253 16.0538 8.84449 16.0382 8.88559C15.1456 11.1811 16.711 14.8654 19.0503 15.9682Z" fill="#1EBFFA"/>
<path fill-rule="evenodd" clip-rule="evenodd" d="M33.9077 3.0924L33.9371 11.5878C35.3711 10.5543 39.1728 10.0166 41.3098 11.5022C41.3475 11.5287 41.3861 11.5561 41.4229 11.5844C42.2777 12.1717 41.4918 13.2882 40.8355 12.9911C39.375 12.3284 36.6993 11.6905 35.167 12.8892C33.6743 14.0588 33.8204 15.9956 33.8222 17.6395L33.87 49.5404C35.4786 48.0309 39.8318 47.6088 41.9863 48.2638C42.4082 48.3922 43.0719 48.6525 43.2144 49.0858C43.3881 49.6132 43.1519 50.4043 42.1987 50.293C42.1591 50.2879 42.1205 50.2742 42.081 50.2656C39.3915 49.6646 35.4878 49.7956 33.8783 52.6082L33.8195 58.7225C37.0099 60.5103 41.6894 59.029 44.7218 55.7874C45.0729 55.4843 45.4838 55.2214 45.9627 55.1598C50.3242 54.6015 50.6698 49.0292 48.6954 46.8913C44.0067 46.7783 37.2563 45.0478 36.0604 38.4019C36.0512 38.3548 36.0448 38.306 36.0356 38.2581C35.7534 36.7708 37.9659 36.4934 38.2232 37.6587C39.9081 46.6387 56.33 47.0171 58.8872 37.246C59.6924 34.1705 59.8551 28.5092 56.2887 26.9706C50.94 26.8738 44.0931 32.0102 45.1106 36.5568C45.1262 36.6252 45.1354 36.698 45.1621 36.7648C45.8358 38.4849 43.5103 39.0586 42.9956 37.1921C42.9763 37.1278 42.9579 37.0645 42.9404 37.0011C41.1876 30.6626 48.381 26.0544 54.2738 24.8429C57.6417 24.151 58.15 11.509 50.6872 12.6606C50.0135 16.2935 47.3598 21.7416 37.8923 21.0104C36.9171 20.9351 36.5301 19.846 37.4116 19.2372C38.1019 19.1387 38.6672 19.1113 39.158 19.1148C50.6376 19.1798 50.1615 6.49329 45.4792 5.54888C44.1721 5.87253 43.5306 6.88116 42.092 6.50185C40.3511 6.04292 40.5901 4.67383 40.25 3.46999C38.4797 1.81921 35.9529 1.96048 33.9077 3.0924ZM52.2029 46.0616L51.4473 46.7594C52.9171 49.7484 53.0347 55.5279 47.3579 57.1752C46.8129 57.3336 46.2816 57.7489 45.6474 58.3337C42.0479 61.655 36.3775 62.7287 31.7485 60.4032V1.65391C33.7146 -0.646744 41.6269 -1.1502 42.9128 4.1318C48.7496 1.84913 51.0199 7.12855 50.9023 10.1904C58.7336 9.99773 61.8974 19.4118 57.6527 25.0543C66.2791 31.4648 60.3789 46.2645 52.2029 46.0616Z" fill="#1EBFFA"/>
<path fill-rule="evenodd" clip-rule="evenodd" d="M55.6343 44.4091C56.8531 41.4072 57.2759 37.2117 53.2849 34.5121C53.2536 34.4907 53.2205 34.4701 53.1893 34.4487C52.2002 33.7672 51.2498 35.0721 52.0127 35.6286C54.1342 37.0859 54.8355 39.3514 54.5018 41.5921C54.3851 42.3045 53.9788 43.2275 53.1929 43.5409C52.4723 43.8286 51.8133 44.3166 51.1 44.4159L54.8971 44.6403C55 44.5307 55.1011 44.4065 55.1995 44.2695L55.6343 44.4091Z" fill="#1EBFFA"/>
<path fill-rule="evenodd" clip-rule="evenodd" d="M45.2788 29.743C43.7695 28.7584 40.1002 28.2815 38.0146 29.7319C37.976 29.7576 37.9383 29.785 37.9015 29.8132C37.0458 30.4006 37.8326 31.518 38.4889 31.22C39.9494 30.5573 42.6252 29.9194 44.1574 31.1181C44.7576 31.5882 45.0922 32.1824 45.2788 32.8314V29.743Z" fill="#1EBFFA"/>
<path fill-rule="evenodd" clip-rule="evenodd" d="M57.8889 21.2382C57.4349 19.5755 54.988 16.9837 52.3914 16.815C52.3445 16.8116 52.2967 16.809 52.2489 16.8082C51.1891 16.7337 51.0025 18.0582 51.7084 18.2312C53.2793 18.6165 55.7546 19.7595 56.0754 21.5996C56.2013 22.3205 56.0386 22.9746 55.7252 23.58L57.8889 21.2382Z" fill="#1EBFFA"/>
<path fill-rule="evenodd" clip-rule="evenodd" d="M47.1318 56.6359C45.3109 56.8945 41.7951 55.8071 40.6158 53.646C40.5937 53.6066 40.5726 53.5664 40.5533 53.5262C40.0661 52.6468 41.3024 51.9704 41.7491 52.5081C42.7428 53.7051 44.8376 55.3816 46.7816 54.9398C47.5436 54.766 48.1264 54.3721 48.6025 53.8669L47.1318 56.6359Z" fill="#1EBFFA"/>
<path fill-rule="evenodd" clip-rule="evenodd" d="M49.1154 37.0601C49.1071 37.103 49.0998 37.1475 49.0933 37.1911C48.9113 38.1664 50.3076 38.4695 50.5613 37.8316C51.5411 35.3725 53.1984 34.1293 55.9853 33.7629C56.7087 33.6678 56.6885 32.3321 55.6268 32.2902C55.5799 32.2867 55.5321 32.2842 55.4843 32.2816C52.8665 32.1677 49.552 34.6525 49.1154 37.0601Z" fill="#1EBFFA"/>
<path fill-rule="evenodd" clip-rule="evenodd" d="M43.0084 25.9037C42.9964 25.9466 42.9854 25.9902 42.9753 26.033C42.7069 26.9911 44.0728 27.3996 44.3816 26.7839C45.5747 24.4079 47.3358 23.2957 50.1457 23.1433C50.8747 23.1039 50.973 21.7708 49.9187 21.6484C49.8718 21.6415 49.824 21.6347 49.7772 21.6295C47.1787 21.3153 43.6564 23.538 43.0084 25.9037Z" fill="#1EBFFA"/>
<path fill-rule="evenodd" clip-rule="evenodd" d="M42.8475 15.9682C42.8052 15.9879 42.762 16.0076 42.7188 16.0264C41.773 16.4777 41.0496 15.3243 41.6277 14.9099C43.8586 13.3105 44.6426 11.4671 44.1931 8.87874C44.0764 8.20746 45.4515 7.82902 45.809 8.76144C45.8265 8.80253 45.8431 8.84449 45.8596 8.88559C46.7521 11.1811 45.1858 14.8654 42.8475 15.9682Z" fill="#1EBFFA"/>
</svg>
