<svg width="62" height="50" viewBox="0 0 62 50" fill="none" xmlns="http://www.w3.org/2000/svg">
<path d="M61.5385 5.91923C59.25 6.92308 56.8115 7.58846 54.2692 7.91154C56.8846 6.35 58.8808 3.89615 59.8192 0.938461C57.3808 2.39231 54.6885 3.41923 51.8192 3.99231C49.5038 1.52692 46.2038 0 42.6038 0C35.6192 0 29.9962 5.66923 29.9962 12.6192C29.9962 13.6192 30.0808 14.5808 30.2885 15.4962C19.8 14.9846 10.5192 9.95769 4.28462 2.3C3.19615 4.18846 2.55769 6.35 2.55769 8.67692C2.55769 13.0462 4.80769 16.9192 8.16154 19.1615C6.13461 19.1231 4.14615 18.5346 2.46154 17.6077C2.46154 17.6462 2.46154 17.6962 2.46154 17.7462C2.46154 23.8769 6.83461 28.9692 12.5692 30.1423C11.5423 30.4231 10.4231 30.5577 9.26154 30.5577C8.45385 30.5577 7.63846 30.5115 6.87308 30.3423C8.50769 35.3385 13.1462 39.0115 18.6615 39.1308C14.3692 42.4885 8.91923 44.5115 3.01923 44.5115C1.98462 44.5115 0.992308 44.4654 0 44.3385C5.58846 47.9423 12.2115 50 19.3538 50C42.5692 50 55.2615 30.7692 55.2615 14.1C55.2615 13.5423 55.2423 13.0038 55.2154 12.4692C57.7192 10.6923 59.8231 8.47308 61.5385 5.91923Z" fill="white" fill-opacity="0.8"/>
</svg>
