<svg width="120" height="40" viewBox="0 0 120 40" fill="none" xmlns="http://www.w3.org/2000/svg">
<path d="M110.135 0.00013H9.53468C9.16798 0.00013 8.80568 0.00013 8.43995 0.00213C8.1338 0.00413 7.83009 0.00994 7.521 0.01483C6.84951 0.0227318 6.17961 0.0818063 5.5171 0.19154C4.85552 0.303663 4.21467 0.515046 3.61622 0.81854C3.0185 1.1246 2.47235 1.5223 1.99757 1.9972C1.5203 2.47077 1.12246 3.01815 0.81935 3.61829C0.5154 4.21724 0.304641 4.85907 0.19435 5.52161C0.0830109 6.18331 0.0230984 6.85265 0.01515 7.52361C0.00587 7.83021 0.00489 8.13783 0 8.44447V31.5587C0.00489 31.8692 0.00587 32.17 0.01515 32.4806C0.0231008 33.1516 0.0830134 33.8209 0.19435 34.4825C0.304336 35.1455 0.515108 35.7877 0.81935 36.3868C1.12233 36.985 1.52022 37.5302 1.99757 38.0011C2.47054 38.4781 3.01705 38.8761 3.61622 39.1798C4.21467 39.4841 4.85545 39.6968 5.5171 39.8106C6.17972 39.9195 6.84956 39.9786 7.521 39.9874C7.83009 39.9942 8.1338 39.9981 8.43995 39.9981C8.80567 40.0001 9.168 40.0001 9.53468 40.0001H110.135C110.494 40.0001 110.859 40.0001 111.219 39.9981C111.523 39.9981 111.836 39.9942 112.141 39.9874C112.811 39.9791 113.479 39.92 114.141 39.8106C114.804 39.696 115.448 39.4834 116.049 39.1798C116.647 38.8759 117.193 38.478 117.666 38.0011C118.142 37.5284 118.541 36.9836 118.848 36.3868C119.15 35.7872 119.358 35.1451 119.467 34.4825C119.578 33.8208 119.64 33.1516 119.652 32.4806C119.656 32.17 119.656 31.8692 119.656 31.5587C119.664 31.1954 119.664 30.8341 119.664 30.4649V9.53626C119.664 9.17005 119.664 8.80677 119.656 8.44447C119.656 8.13783 119.656 7.83021 119.652 7.52357C119.64 6.85255 119.578 6.18337 119.467 5.52157C119.358 4.85941 119.149 4.21763 118.848 3.61825C118.23 2.41533 117.252 1.43616 116.049 0.81845C115.448 0.515697 114.804 0.30437 114.141 0.19145C113.48 0.0812328 112.811 0.0221378 112.141 0.01469C111.836 0.00981 111.523 0.00395 111.219 0.002C110.859 0 110.494 0 110.135 0V0.00013Z" fill="#A6A6A6"/>
<path d="M8.44481 39.1251C8.14013 39.1251 7.84281 39.1212 7.54052 39.1144C6.9143 39.1063 6.28954 39.0517 5.67138 38.9513C5.09497 38.852 4.53658 38.6674 4.01464 38.4034C3.49748 38.1416 3.02579 37.7984 2.61764 37.3868C2.20358 36.9801 1.85885 36.5084 1.59713 35.9903C1.33252 35.4689 1.14939 34.91 1.05413 34.3331C0.95125 33.7132 0.89559 33.0864 0.887626 32.4581C0.881286 32.2472 0.872986 31.545 0.872986 31.545V8.44446C0.872986 8.44446 0.881826 7.75305 0.887676 7.54992C0.895302 6.9226 0.950638 6.29678 1.05321 5.67785C1.14864 5.09937 1.33191 4.53887 1.59667 4.01575C1.85743 3.49807 2.20024 3.02598 2.61181 2.6178C3.02291 2.20574 3.49611 1.86073 4.01415 1.59533C4.53489 1.33222 5.09222 1.14885 5.66747 1.05139C6.28766 0.949958 6.91459 0.895118 7.54298 0.887332L8.4453 0.875122H111.214L112.127 0.887822C112.75 0.895221 113.371 0.949572 113.985 1.05041C114.566 1.1491 115.13 1.33374 115.656 1.59826C116.694 2.13311 117.539 2.97929 118.071 4.01819C118.332 4.5377 118.512 5.09363 118.606 5.66711C118.71 6.29111 118.768 6.92186 118.78 7.55432C118.783 7.83752 118.783 8.14172 118.783 8.44446C118.791 8.81946 118.791 9.17639 118.791 9.53625V30.4649C118.791 30.8282 118.791 31.1827 118.783 31.5401C118.783 31.8653 118.783 32.1632 118.779 32.4698C118.768 33.091 118.71 33.7105 118.608 34.3233C118.515 34.9044 118.333 35.4676 118.068 35.9933C117.805 36.5057 117.462 36.9734 117.053 37.379C116.644 37.7928 116.172 38.1381 115.653 38.4015C115.128 38.6675 114.566 38.8529 113.985 38.9513C113.367 39.0523 112.742 39.1068 112.116 39.1144C111.823 39.1212 111.517 39.1251 111.219 39.1251L110.135 39.1271L8.44481 39.1251Z" fill="black"/>
<path fill-rule="evenodd" clip-rule="evenodd" d="M23.1518 8.72046C23.2486 9.98469 22.8488 11.2369 22.0372 12.2111C21.2499 13.1903 20.0569 13.7544 18.8005 13.7415C18.7206 12.5136 19.132 11.3044 19.9442 10.3801C20.7667 9.44324 21.9119 8.85068 23.1518 8.72046ZM27.1254 16.1488C25.6801 17.0374 24.7907 18.6044 24.7689 20.3009C24.7709 22.2202 25.9204 23.9524 27.6881 24.7C27.3481 25.8045 26.8357 26.8482 26.1697 27.7925C25.2753 29.1304 24.3376 30.4375 22.8492 30.4617C22.1413 30.478 21.6635 30.2745 21.1656 30.0624C20.6462 29.8411 20.1051 29.6106 19.2582 29.6106C18.36 29.6106 17.7946 29.8485 17.2493 30.0781C16.778 30.2764 16.3218 30.4684 15.6788 30.4951C14.2613 30.5476 13.1781 29.0671 12.2512 27.7418C10.3985 25.0352 8.95595 20.1141 10.89 16.7657C11.7981 15.1337 13.4962 14.0981 15.3629 14.0378C16.1668 14.0213 16.9382 14.3311 17.6145 14.6028C18.1318 14.8105 18.5934 14.996 18.9714 14.996C19.3037 14.996 19.7524 14.8179 20.2753 14.6103C21.0991 14.2834 22.1071 13.8833 23.1343 13.9911C24.7304 14.0411 26.2095 14.8407 27.1254 16.1488Z" fill="white"/>
<path d="M35.557 14.2801V9.29412H36.997C37.393 9.29412 37.726 9.35112 37.996 9.46512C38.266 9.57312 38.485 9.73512 38.653 9.95112C38.827 10.1611 38.95 10.4191 39.022 10.7251C39.1 11.0251 39.139 11.3671 39.139 11.7511C39.139 12.1471 39.097 12.4861 39.013 12.7681C38.935 13.0441 38.833 13.2751 38.707 13.4611C38.581 13.6471 38.437 13.7941 38.275 13.9021C38.119 14.0101 37.96 14.0941 37.798 14.1541C37.636 14.2081 37.483 14.2441 37.339 14.2621C37.195 14.2741 37.075 14.2801 36.979 14.2801H35.557ZM34.702 8.57412V15.0001H36.907C37.441 15.0001 37.903 14.9251 38.293 14.7751C38.683 14.6251 39.004 14.4091 39.256 14.1271C39.508 13.8391 39.694 13.4881 39.814 13.0741C39.934 12.6541 39.994 12.1741 39.994 11.6341C39.994 10.6021 39.727 9.83412 39.193 9.33012C38.659 8.82612 37.897 8.57412 36.907 8.57412H34.702ZM41.4709 12.6781C41.4709 12.3961 41.5069 12.1471 41.5789 11.9311C41.6569 11.7091 41.7619 11.5231 41.8939 11.3731C42.0259 11.2231 42.1789 11.1091 42.3529 11.0311C42.5329 10.9531 42.7219 10.9141 42.9199 10.9141C43.1179 10.9141 43.3039 10.9531 43.4779 11.0311C43.6579 11.1091 43.8139 11.2231 43.9459 11.3731C44.0779 11.5231 44.1799 11.7091 44.2519 11.9311C44.3299 12.1471 44.3689 12.3961 44.3689 12.6781C44.3689 12.9601 44.3299 13.2121 44.2519 13.4341C44.1799 13.6501 44.0779 13.8331 43.9459 13.9831C43.8139 14.1271 43.6579 14.2381 43.4779 14.3161C43.3039 14.3941 43.1179 14.4331 42.9199 14.4331C42.7219 14.4331 42.5329 14.3941 42.3529 14.3161C42.1789 14.2381 42.0259 14.1271 41.8939 13.9831C41.7619 13.8331 41.6569 13.6501 41.5789 13.4341C41.5069 13.2121 41.4709 12.9601 41.4709 12.6781ZM40.6609 12.6781C40.6609 13.0201 40.7089 13.3381 40.8049 13.6321C40.9009 13.9261 41.0449 14.1841 41.2369 14.4061C41.4289 14.6221 41.6659 14.7931 41.9479 14.9191C42.2299 15.0391 42.5539 15.0991 42.9199 15.0991C43.2919 15.0991 43.6159 15.0391 43.8919 14.9191C44.1739 14.7931 44.4109 14.6221 44.6029 14.4061C44.7949 14.1841 44.9389 13.9261 45.0349 13.6321C45.1309 13.3381 45.1789 13.0201 45.1789 12.6781C45.1789 12.3361 45.1309 12.0181 45.0349 11.7241C44.9389 11.4241 44.7949 11.1661 44.6029 10.9501C44.4109 10.7281 44.1739 10.5541 43.8919 10.4281C43.6159 10.3021 43.2919 10.2391 42.9199 10.2391C42.5539 10.2391 42.2299 10.3021 41.9479 10.4281C41.6659 10.5541 41.4289 10.7281 41.2369 10.9501C41.0449 11.1661 40.9009 11.4241 40.8049 11.7241C40.7089 12.0181 40.6609 12.3361 40.6609 12.6781ZM50.6889 15.0001L52.1739 10.3471H51.3819L50.3379 14.1541H50.3199L49.3479 10.3471H48.5109L47.5749 14.1541H47.5569L46.5039 10.3471H45.6579L47.1519 15.0001H47.9799L48.9159 11.3011H48.9339L49.8789 15.0001H50.6889ZM52.9012 10.3471V15.0001H53.6662V12.3721C53.6662 12.1621 53.6932 11.9701 53.7472 11.7961C53.8072 11.6161 53.8942 11.4601 54.0082 11.3281C54.1222 11.1961 54.2632 11.0941 54.4312 11.0221C54.6052 10.9501 54.8092 10.9141 55.0432 10.9141C55.3372 10.9141 55.5682 10.9981 55.7362 11.1661C55.9042 11.3341 55.9882 11.5621 55.9882 11.8501V15.0001H56.7532V11.9401C56.7532 11.6881 56.7262 11.4601 56.6722 11.2561C56.6242 11.0461 56.5372 10.8661 56.4112 10.7161C56.2852 10.5661 56.1202 10.4491 55.9162 10.3651C55.7122 10.2811 55.4572 10.2391 55.1512 10.2391C54.4612 10.2391 53.9572 10.5211 53.6392 11.0851H53.6212V10.3471H52.9012ZM57.9472 8.57412V15.0001H58.7122V8.57412H57.9472ZM60.4553 12.6781C60.4553 12.3961 60.4913 12.1471 60.5633 11.9311C60.6413 11.7091 60.7463 11.5231 60.8783 11.3731C61.0103 11.2231 61.1633 11.1091 61.3373 11.0311C61.5173 10.9531 61.7063 10.9141 61.9043 10.9141C62.1023 10.9141 62.2883 10.9531 62.4623 11.0311C62.6423 11.1091 62.7983 11.2231 62.9303 11.3731C63.0623 11.5231 63.1643 11.7091 63.2363 11.9311C63.3143 12.1471 63.3533 12.3961 63.3533 12.6781C63.3533 12.9601 63.3143 13.2121 63.2363 13.4341C63.1643 13.6501 63.0623 13.8331 62.9303 13.9831C62.7983 14.1271 62.6423 14.2381 62.4623 14.3161C62.2883 14.3941 62.1023 14.4331 61.9043 14.4331C61.7063 14.4331 61.5173 14.3941 61.3373 14.3161C61.1633 14.2381 61.0103 14.1271 60.8783 13.9831C60.7463 13.8331 60.6413 13.6501 60.5633 13.4341C60.4913 13.2121 60.4553 12.9601 60.4553 12.6781ZM59.6453 12.6781C59.6453 13.0201 59.6933 13.3381 59.7893 13.6321C59.8853 13.9261 60.0293 14.1841 60.2213 14.4061C60.4133 14.6221 60.6503 14.7931 60.9323 14.9191C61.2143 15.0391 61.5383 15.0991 61.9043 15.0991C62.2763 15.0991 62.6003 15.0391 62.8763 14.9191C63.1583 14.7931 63.3953 14.6221 63.5873 14.4061C63.7793 14.1841 63.9233 13.9261 64.0193 13.6321C64.1153 13.3381 64.1633 13.0201 64.1633 12.6781C64.1633 12.3361 64.1153 12.0181 64.0193 11.7241C63.9233 11.4241 63.7793 11.1661 63.5873 10.9501C63.3953 10.7281 63.1583 10.5541 62.8763 10.4281C62.6003 10.3021 62.2763 10.2391 61.9043 10.2391C61.5383 10.2391 61.2143 10.3021 60.9323 10.4281C60.6503 10.5541 60.4133 10.7281 60.2213 10.9501C60.0293 11.1661 59.8853 11.4241 59.7893 11.7241C59.6933 12.0181 59.6453 12.3361 59.6453 12.6781ZM69.1873 14.9821V14.3881C69.0973 14.4181 69.0193 14.4331 68.9533 14.4331C68.8333 14.4331 68.7613 14.3911 68.7373 14.3071C68.7193 14.2231 68.7103 14.0911 68.7103 13.9111V11.5171C68.7103 11.2471 68.6593 11.0281 68.5573 10.8601C68.4553 10.6921 68.3203 10.5631 68.1523 10.4731C67.9843 10.3771 67.7953 10.3141 67.5853 10.2841C67.3813 10.2541 67.1743 10.2391 66.9643 10.2391C66.7063 10.2391 66.4603 10.2661 66.2263 10.3201C65.9923 10.3741 65.7853 10.4641 65.6053 10.5901C65.4253 10.7101 65.2813 10.8691 65.1733 11.0671C65.0653 11.2651 65.0053 11.5081 64.9933 11.7961H65.7583C65.7763 11.4541 65.8933 11.2231 66.1093 11.1031C66.3253 10.9771 66.5953 10.9141 66.9193 10.9141C67.0393 10.9141 67.1593 10.9231 67.2793 10.9411C67.4053 10.9591 67.5163 10.9951 67.6123 11.0491C67.7143 11.1031 67.7953 11.1811 67.8553 11.2831C67.9213 11.3851 67.9543 11.5201 67.9543 11.6881C67.9543 11.8321 67.9123 11.9431 67.8283 12.0211C67.7443 12.0931 67.6303 12.1501 67.4863 12.1921C67.3423 12.2281 67.1743 12.2581 66.9823 12.2821C66.7963 12.3001 66.5983 12.3301 66.3883 12.3721C66.1903 12.4081 65.9953 12.4531 65.8033 12.5071C65.6173 12.5611 65.4493 12.6421 65.2993 12.7501C65.1553 12.8521 65.0383 12.9871 64.9483 13.1551C64.8583 13.3231 64.8133 13.5391 64.8133 13.8031C64.8133 14.0371 64.8523 14.2381 64.9303 14.4061C65.0143 14.5681 65.1253 14.7031 65.2633 14.8111C65.4073 14.9131 65.5723 14.9851 65.7583 15.0271C65.9443 15.0751 66.1423 15.0991 66.3523 15.0991C66.6763 15.0991 66.9763 15.0451 67.2523 14.9371C67.5343 14.8231 67.7803 14.6401 67.9903 14.3881C67.9903 14.6401 68.0473 14.8231 68.1613 14.9371C68.2813 15.0451 68.4403 15.0991 68.6383 15.0991C68.8723 15.0991 69.0553 15.0601 69.1873 14.9821ZM67.9453 12.5971V13.3801C67.9453 13.4881 67.9183 13.6051 67.8643 13.7311C67.8103 13.8511 67.7263 13.9651 67.6123 14.0731C67.4983 14.1751 67.3513 14.2621 67.1713 14.3341C66.9913 14.4001 66.7753 14.4331 66.5233 14.4331C66.4093 14.4331 66.2953 14.4211 66.1813 14.3971C66.0733 14.3731 65.9773 14.3341 65.8933 14.2801C65.8153 14.2261 65.7493 14.1571 65.6953 14.0731C65.6473 13.9831 65.6233 13.8751 65.6233 13.7491C65.6233 13.5571 65.6653 13.4071 65.7493 13.2991C65.8393 13.1851 65.9533 13.0981 66.0913 13.0381C66.2293 12.9781 66.3853 12.9361 66.5593 12.9121C66.7333 12.8821 66.9043 12.8581 67.0723 12.8401C67.2463 12.8161 67.4113 12.7891 67.5673 12.7591C67.7233 12.7231 67.8493 12.6691 67.9453 12.5971ZM70.4572 12.7141C70.4572 12.4861 70.4812 12.2641 70.5292 12.0481C70.5772 11.8321 70.6552 11.6401 70.7632 11.4721C70.8712 11.3041 71.0152 11.1691 71.1952 11.0671C71.3752 10.9651 71.5942 10.9141 71.8522 10.9141C72.1162 10.9141 72.3412 10.9651 72.5272 11.0671C72.7132 11.1631 72.8632 11.2921 72.9772 11.4541C73.0972 11.6161 73.1842 11.8051 73.2382 12.0211C73.2922 12.2311 73.3192 12.4501 73.3192 12.6781C73.3192 12.8941 73.2922 13.1071 73.2382 13.3171C73.1902 13.5271 73.1092 13.7161 72.9952 13.8841C72.8812 14.0461 72.7342 14.1781 72.5542 14.2801C72.3742 14.3821 72.1552 14.4331 71.8972 14.4331C71.6512 14.4331 71.4352 14.3851 71.2492 14.2891C71.0692 14.1931 70.9192 14.0641 70.7992 13.9021C70.6852 13.7401 70.5982 13.5571 70.5382 13.3531C70.4842 13.1431 70.4572 12.9301 70.4572 12.7141ZM74.0572 15.0001V8.57412H73.2922V10.9681H73.2742C73.1902 10.8301 73.0852 10.7161 72.9592 10.6261C72.8392 10.5301 72.7102 10.4551 72.5722 10.4011C72.4342 10.3411 72.2962 10.2991 72.1582 10.2751C72.0202 10.2511 71.8912 10.2391 71.7712 10.2391C71.4172 10.2391 71.1052 10.3051 70.8352 10.4371C70.5712 10.5631 70.3492 10.7371 70.1692 10.9591C69.9952 11.1751 69.8632 11.4301 69.7732 11.7241C69.6892 12.0181 69.6472 12.3301 69.6472 12.6601C69.6472 12.9901 69.6922 13.3021 69.7822 13.5961C69.8722 13.8901 70.0042 14.1481 70.1782 14.3701C70.3582 14.5921 70.5802 14.7691 70.8442 14.9011C71.1142 15.0331 71.4292 15.0991 71.7892 15.0991C72.1132 15.0991 72.4102 15.0421 72.6802 14.9281C72.9502 14.8141 73.1482 14.6281 73.2742 14.3701H73.2922V15.0001H74.0572ZM78.2971 12.6781C78.2971 12.3961 78.3331 12.1471 78.4051 11.9311C78.4831 11.7091 78.5881 11.5231 78.7201 11.3731C78.8521 11.2231 79.0051 11.1091 79.1791 11.0311C79.3591 10.9531 79.5481 10.9141 79.7461 10.9141C79.9441 10.9141 80.1301 10.9531 80.3041 11.0311C80.4841 11.1091 80.6401 11.2231 80.7721 11.3731C80.9041 11.5231 81.0061 11.7091 81.0781 11.9311C81.1561 12.1471 81.1951 12.3961 81.1951 12.6781C81.1951 12.9601 81.1561 13.2121 81.0781 13.4341C81.0061 13.6501 80.9041 13.8331 80.7721 13.9831C80.6401 14.1271 80.4841 14.2381 80.3041 14.3161C80.1301 14.3941 79.9441 14.4331 79.7461 14.4331C79.5481 14.4331 79.3591 14.3941 79.1791 14.3161C79.0051 14.2381 78.8521 14.1271 78.7201 13.9831C78.5881 13.8331 78.4831 13.6501 78.4051 13.4341C78.3331 13.2121 78.2971 12.9601 78.2971 12.6781ZM77.4871 12.6781C77.4871 13.0201 77.5351 13.3381 77.6311 13.6321C77.7271 13.9261 77.8711 14.1841 78.0631 14.4061C78.2551 14.6221 78.4921 14.7931 78.7741 14.9191C79.0561 15.0391 79.3801 15.0991 79.7461 15.0991C80.1181 15.0991 80.4421 15.0391 80.7181 14.9191C81.0001 14.7931 81.2371 14.6221 81.4291 14.4061C81.6211 14.1841 81.7651 13.9261 81.8611 13.6321C81.9571 13.3381 82.0051 13.0201 82.0051 12.6781C82.0051 12.3361 81.9571 12.0181 81.8611 11.7241C81.7651 11.4241 81.6211 11.1661 81.4291 10.9501C81.2371 10.7281 81.0001 10.5541 80.7181 10.4281C80.4421 10.3021 80.1181 10.2391 79.7461 10.2391C79.3801 10.2391 79.0561 10.3021 78.7741 10.4281C78.4921 10.5541 78.2551 10.7281 78.0631 10.9501C77.8711 11.1661 77.7271 11.4241 77.6311 11.7241C77.5351 12.0181 77.4871 12.3361 77.4871 12.6781ZM82.9071 10.3471V15.0001H83.6721V12.3721C83.6721 12.1621 83.6991 11.9701 83.7531 11.7961C83.8131 11.6161 83.9001 11.4601 84.0141 11.3281C84.1281 11.1961 84.2691 11.0941 84.4371 11.0221C84.6111 10.9501 84.8151 10.9141 85.0491 10.9141C85.3431 10.9141 85.5741 10.9981 85.7421 11.1661C85.9101 11.3341 85.9941 11.5621 85.9941 11.8501V15.0001H86.7591V11.9401C86.7591 11.6881 86.7321 11.4601 86.6781 11.2561C86.6301 11.0461 86.5431 10.8661 86.4171 10.7161C86.2911 10.5661 86.1261 10.4491 85.9221 10.3651C85.7181 10.2811 85.4631 10.2391 85.1571 10.2391C84.4671 10.2391 83.9631 10.5211 83.6451 11.0851H83.6271V10.3471H82.9071ZM91.4749 10.3471V8.95212H90.7099V10.3471H89.9179V11.0221H90.7099V13.9831C90.7099 14.1991 90.7309 14.3731 90.7729 14.5051C90.8149 14.6371 90.8779 14.7391 90.9619 14.8111C91.0519 14.8831 91.1659 14.9341 91.3039 14.9641C91.4479 14.9881 91.6189 15.0001 91.8169 15.0001H92.4019V14.3251H92.0509C91.9309 14.3251 91.8319 14.3221 91.7539 14.3161C91.6819 14.3041 91.6249 14.2831 91.5829 14.2531C91.5409 14.2231 91.5109 14.1811 91.4929 14.1271C91.4809 14.0731 91.4749 14.0011 91.4749 13.9111V11.0221H92.4019V10.3471H91.4749ZM93.2518 8.57412V15.0001H94.0168V12.3721C94.0168 12.1621 94.0438 11.9701 94.0978 11.7961C94.1578 11.6161 94.2448 11.4601 94.3588 11.3281C94.4728 11.1961 94.6138 11.0941 94.7818 11.0221C94.9558 10.9501 95.1598 10.9141 95.3938 10.9141C95.6878 10.9141 95.9188 10.9981 96.0868 11.1661C96.2548 11.3341 96.3388 11.5621 96.3388 11.8501V15.0001H97.1038V11.9401C97.1038 11.6881 97.0768 11.4601 97.0228 11.2561C96.9748 11.0461 96.8878 10.8661 96.7618 10.7161C96.6358 10.5661 96.4708 10.4491 96.2668 10.3651C96.0628 10.2811 95.8078 10.2391 95.5018 10.2391C95.3638 10.2391 95.2198 10.2541 95.0698 10.2841C94.9258 10.3141 94.7848 10.3621 94.6468 10.4281C94.5148 10.4881 94.3948 10.5691 94.2868 10.6711C94.1788 10.7671 94.0948 10.8871 94.0348 11.0311H94.0168V8.57412H93.2518ZM101.484 12.2281H98.8108C98.8228 12.0481 98.8618 11.8801 98.9278 11.7241C98.9938 11.5621 99.0838 11.4211 99.1978 11.3011C99.3118 11.1811 99.4468 11.0881 99.6028 11.0221C99.7648 10.9501 99.9448 10.9141 100.143 10.9141C100.335 10.9141 100.509 10.9501 100.665 11.0221C100.827 11.0881 100.965 11.1811 101.079 11.3011C101.199 11.4151 101.292 11.5531 101.358 11.7151C101.43 11.8771 101.472 12.0481 101.484 12.2281ZM102.222 13.5241H101.466C101.4 13.8301 101.262 14.0581 101.052 14.2081C100.848 14.3581 100.584 14.4331 100.26 14.4331C100.008 14.4331 99.7888 14.3911 99.6028 14.3071C99.4168 14.2231 99.2638 14.1121 99.1438 13.9741C99.0238 13.8301 98.9368 13.6681 98.8828 13.4881C98.8288 13.3021 98.8048 13.1071 98.8108 12.9031H102.294C102.306 12.6211 102.279 12.3241 102.213 12.0121C102.153 11.7001 102.039 11.4121 101.871 11.1481C101.709 10.8841 101.49 10.6681 101.214 10.5001C100.944 10.3261 100.602 10.2391 100.188 10.2391C99.8698 10.2391 99.5758 10.2991 99.3058 10.4191C99.0418 10.5391 98.8108 10.7071 98.6128 10.9231C98.4208 11.1391 98.2708 11.3941 98.1628 11.6881C98.0548 11.9821 98.0008 12.3061 98.0008 12.6601C98.0128 13.0141 98.0638 13.3411 98.1538 13.6411C98.2498 13.9411 98.3908 14.1991 98.5768 14.4151C98.7628 14.6311 98.9908 14.7991 99.2608 14.9191C99.5368 15.0391 99.8608 15.0991 100.233 15.0991C100.761 15.0991 101.199 14.9671 101.547 14.7031C101.895 14.4391 102.12 14.0461 102.222 13.5241Z" fill="white"/>
<path d="M40.8 17.8791L45.475 30.0001H43.197L42.041 26.7871H37.247L36.057 30.0001H33.864L38.539 17.8791H40.8ZM41.48 25.1891L39.678 20.0891L37.791 25.1891H41.48ZM47.8719 21.2281V22.4011C48.4612 21.4491 49.4132 20.9731 50.7279 20.9731C51.9405 20.9731 52.9095 21.3981 53.6349 22.2481C54.3602 23.0981 54.7229 24.2315 54.7229 25.6481C54.7229 27.0308 54.3659 28.1415 53.6519 28.9801C52.9492 29.8075 52.0085 30.2211 50.8299 30.2211C49.5832 30.2211 48.6312 29.7621 47.9739 28.8441V33.2471H46.0529V21.2281H47.8719ZM50.3369 22.5371C49.5775 22.5371 48.9825 22.8091 48.5519 23.3531C48.1212 23.8971 47.9059 24.6508 47.9059 25.6141C47.9059 26.5661 48.1212 27.3141 48.5519 27.8581C48.9939 28.4021 49.6002 28.6741 50.3709 28.6741C51.1075 28.6741 51.6912 28.4021 52.1219 27.8581C52.5525 27.3141 52.7679 26.5775 52.7679 25.6481C52.7679 24.6961 52.5469 23.9425 52.1049 23.3871C51.6742 22.8205 51.0849 22.5371 50.3369 22.5371ZM57.9244 21.2281V22.4011C58.5138 21.4491 59.4658 20.9731 60.7804 20.9731C61.9931 20.9731 62.9621 21.3981 63.6874 22.2481C64.4128 23.0981 64.7754 24.2315 64.7754 25.6481C64.7754 27.0308 64.4184 28.1415 63.7044 28.9801C63.0018 29.8075 62.0611 30.2211 60.8824 30.2211C59.6358 30.2211 58.6838 29.7621 58.0264 28.8441V33.2471H56.1054V21.2281H57.9244ZM60.3894 22.5371C59.6301 22.5371 59.0351 22.8091 58.6044 23.3531C58.1738 23.8971 57.9584 24.6508 57.9584 25.6141C57.9584 26.5661 58.1738 27.3141 58.6044 27.8581C59.0464 28.4021 59.6528 28.6741 60.4234 28.6741C61.1601 28.6741 61.7438 28.4021 62.1744 27.8581C62.6051 27.3141 62.8204 26.5775 62.8204 25.6481C62.8204 24.6961 62.5994 23.9425 62.1574 23.3871C61.7268 22.8205 61.1374 22.5371 60.3894 22.5371ZM79.4745 21.4661H77.4515C77.3268 20.0495 76.4485 19.3411 74.8165 19.3411C74.0911 19.3411 73.5245 19.4941 73.1165 19.8001C72.7085 20.0948 72.5045 20.5028 72.5045 21.0241C72.5045 21.5115 72.6518 21.8458 72.9465 22.0271C73.2525 22.2085 73.9211 22.4295 74.9525 22.6901C75.2245 22.7695 75.4341 22.8261 75.5815 22.8601C76.9301 23.2001 77.8481 23.5061 78.3355 23.7781C79.4121 24.3561 79.9505 25.2571 79.9505 26.4811C79.9505 27.0138 79.8598 27.4955 79.6785 27.9261C79.4971 28.3568 79.2535 28.7195 78.9475 29.0141C78.6415 29.2975 78.2788 29.5355 77.8595 29.7281C77.4401 29.9208 77.0038 30.0568 76.5505 30.1361C76.0971 30.2268 75.6268 30.2721 75.1395 30.2721C73.6208 30.2721 72.3911 29.9095 71.4505 29.1841C70.5098 28.4588 70.0395 27.3935 70.0395 25.9881H72.1305C72.1305 26.8721 72.4195 27.5295 72.9975 27.9601C73.5755 28.3795 74.3291 28.5891 75.2585 28.5891C76.0745 28.5891 76.7091 28.4248 77.1625 28.0961C77.6271 27.7561 77.8595 27.2858 77.8595 26.6851C77.8595 26.2998 77.7348 25.9881 77.4855 25.7501C77.2475 25.5008 76.9868 25.3251 76.7035 25.2231C76.4201 25.1211 75.9271 24.9795 75.2245 24.7981C75.1451 24.7755 75.0828 24.7585 75.0375 24.7471C73.5301 24.3618 72.5385 24.0445 72.0625 23.7951C71.0765 23.2851 70.5495 22.4975 70.4815 21.4321C70.4815 21.3528 70.4815 21.2735 70.4815 21.1941C70.4815 20.1175 70.8838 19.2618 71.6885 18.6271C72.5045 17.9811 73.5925 17.6581 74.9525 17.6581C76.2671 17.6581 77.3381 17.9698 78.1655 18.5931C78.9928 19.2165 79.4291 20.1741 79.4745 21.4661ZM85.4829 21.2281V22.6391H83.7149V27.2631C83.7149 27.5351 83.7206 27.7278 83.7319 27.8411C83.7432 27.9431 83.7772 28.0621 83.8339 28.1981C83.8906 28.3228 83.9869 28.4078 84.1229 28.4531C84.2702 28.4985 84.4686 28.5211 84.7179 28.5211C85.0352 28.5211 85.2902 28.5098 85.4829 28.4871V30.0171C85.0976 30.0625 84.6612 30.0851 84.1739 30.0851C83.8339 30.0851 83.5336 30.0568 83.2729 30.0001C83.0236 29.9548 82.8139 29.8981 82.6439 29.8301C82.4739 29.7621 82.3322 29.6488 82.2189 29.4901C82.1056 29.3201 82.0149 29.1841 81.9469 29.0821C81.8902 28.9688 81.8449 28.7761 81.8109 28.5041C81.7882 28.2321 81.7769 28.0281 81.7769 27.8921C81.7769 27.7448 81.7769 27.4955 81.7769 27.1441C81.7769 26.9968 81.7769 26.8891 81.7769 26.8211V22.6391H80.3149V21.2281H81.7769V18.5931H83.7149V21.2281H85.4829ZM90.583 20.9731C91.9204 20.9731 92.9857 21.3925 93.779 22.2311C94.5724 23.0698 94.969 24.1975 94.969 25.6141C94.969 27.0421 94.5724 28.1755 93.779 29.0141C92.997 29.8528 91.9317 30.2721 90.583 30.2721C89.2117 30.2721 88.1237 29.8528 87.319 29.0141C86.5144 28.1755 86.112 27.0421 86.112 25.6141C86.112 24.1975 86.5144 23.0698 87.319 22.2311C88.135 21.3925 89.223 20.9731 90.583 20.9731ZM92.351 23.3361C91.9204 22.7808 91.3197 22.5031 90.549 22.5031C89.7784 22.5031 89.172 22.7808 88.73 23.3361C88.288 23.8915 88.067 24.6508 88.067 25.6141C88.067 26.6001 88.288 27.3708 88.73 27.9261C89.172 28.4815 89.784 28.7591 90.566 28.7591C91.3254 28.7591 91.9204 28.4815 92.351 27.9261C92.793 27.3595 93.014 26.5831 93.014 25.5971C93.014 24.6338 92.793 23.8801 92.351 23.3361ZM101.221 21.0581V22.9111C100.881 22.8771 100.655 22.8601 100.541 22.8601C98.8525 22.8601 98.0082 23.9538 98.0082 26.1411V30.0001H96.0872V21.2281H97.9062V22.9791C98.5295 21.6758 99.5099 21.0241 100.847 21.0241L101.221 21.0581ZM109.449 27.2631C109.234 28.2151 108.763 28.9575 108.038 29.4901C107.324 30.0228 106.468 30.2891 105.471 30.2891C104.145 30.2891 103.091 29.8641 102.309 29.0141C101.538 28.1528 101.153 27.0535 101.153 25.7161C101.153 24.3448 101.55 23.2115 102.343 22.3161C103.148 21.4208 104.168 20.9731 105.403 20.9731C106.684 20.9731 107.698 21.4151 108.446 22.2991C109.194 23.1718 109.568 24.3675 109.568 25.8861V26.0901H103.091C103.114 26.9741 103.335 27.6598 103.754 28.1471C104.173 28.6231 104.757 28.8611 105.505 28.8611C106.038 28.8611 106.468 28.7365 106.797 28.4871C107.137 28.2265 107.403 27.8185 107.596 27.2631H109.449ZM107.63 24.7981C107.573 24.0615 107.341 23.4835 106.933 23.0641C106.536 22.6335 106.021 22.4181 105.386 22.4181C104.751 22.4181 104.236 22.6221 103.839 23.0301C103.454 23.4381 103.216 24.0275 103.125 24.7981H107.63Z" fill="white"/>
</svg>
