<svg width="135" height="40" viewBox="0 0 135 40" fill="none" xmlns="http://www.w3.org/2000/svg">
<rect width="135" height="40" rx="5" fill="black"/>
<path fill-rule="evenodd" clip-rule="evenodd" d="M5 0H130C132.761 0 135 2.23858 135 5V35C135 37.7614 132.761 40 130 40H5C2.23858 40 0 37.7614 0 35V5C0 2.23858 2.23858 0 5 0ZM134.2 5C134.2 2.6804 132.32 0.8 130 0.8H5C2.6804 0.8 0.8 2.6804 0.8 5V35C0.8 37.3196 2.6804 39.2 5 39.2H130C132.32 39.2 134.2 37.3196 134.2 35V5Z" fill="#A6A6A6"/>
<path d="M10.44 7.54C10.114 7.93111 9.94952 8.4318 9.97996 8.94V31.06C9.94952 31.5682 10.114 32.0689 10.44 32.46L10.51 32.53L22.9 20.15V19.86L10.51 7.47L10.44 7.54Z" fill="url(#paint0_linear)"/>
<path d="M27 24.28L22.9 20.15V19.86L27 15.72L27.09 15.77L32 18.56C33.4 19.35 33.4 20.65 32 21.45L27.11 24.23L27 24.28Z" fill="url(#paint1_linear)"/>
<path d="M27.1199 24.22L22.8999 20L10.4399 32.46C11.0287 32.9775 11.9024 33.0027 12.5199 32.52L27.1299 24.22" fill="url(#paint2_linear)"/>
<path d="M27.12 15.78L12.51 7.47999C11.8924 6.99726 11.0187 7.02247 10.43 7.53999L22.9 20L27.12 15.78Z" fill="url(#paint3_linear)"/>
<path opacity="0.2" d="M26.9999 24.13L12.5099 32.38C11.917 32.8233 11.1029 32.8233 10.5099 32.38L10.4399 32.45L10.5099 32.52C11.1018 32.9667 11.9181 32.9667 12.5099 32.52L27.1199 24.22L26.9999 24.13Z" fill="black"/>
<path opacity="0.12" fill-rule="evenodd" clip-rule="evenodd" d="M27 24.13L32 21.3C32.5167 21.045 32.886 20.5648 33 20C32.9484 20.6244 32.567 21.1736 32 21.44L27.09 24.22L27 24.13ZM9.97779 31.1147C9.9943 31.5546 10.1558 31.979 10.44 32.32L10.51 32.4L10.44 32.47C10.1236 32.0904 9.9593 31.6075 9.97779 31.1147ZM9.97779 31.1147C9.97834 31.0998 9.97907 31.0849 9.97996 31.07V30.92C9.97606 30.9851 9.97536 31.05 9.97779 31.1147Z" fill="black"/>
<path opacity="0.25" d="M12.51 7.62L32 18.7C32.5167 18.955 32.886 19.4352 33 20C32.9484 19.3756 32.567 18.8264 32 18.56L12.51 7.48C11.11 6.69 9.96997 7.35 9.96997 8.95V9.1C9.99997 7.49 11.12 6.83 12.51 7.62Z" fill="white"/>
<path d="M53.698 27.078C53.698 28.878 53.164 30.312 52.096 31.38C50.896 32.652 49.318 33.288 47.362 33.288C45.49 33.288 43.906 32.64 42.61 31.344C41.314 30.048 40.666 28.452 40.666 26.556C40.666 24.66 41.314 23.064 42.61 21.768C43.906 20.472 45.49 19.824 47.362 19.824C48.31 19.824 49.204 19.992 50.044 20.328C50.884 20.664 51.574 21.138 52.114 21.75L50.926 22.938C50.53 22.458 50.014 22.086 49.378 21.822C48.754 21.546 48.082 21.408 47.362 21.408C45.958 21.408 44.77 21.894 43.798 22.866C42.838 23.85 42.358 25.08 42.358 26.556C42.358 28.032 42.838 29.262 43.798 30.246C44.77 31.218 45.958 31.704 47.362 31.704C48.646 31.704 49.714 31.344 50.566 30.624C51.418 29.904 51.91 28.914 52.042 27.654H47.362V26.106H53.608C53.668 26.442 53.698 26.766 53.698 27.078ZM54.1102 28.59C54.1102 27.234 54.5362 26.112 55.3882 25.224C56.2522 24.336 57.3382 23.892 58.6462 23.892C59.9542 23.892 61.0342 24.336 61.8862 25.224C62.7502 26.112 63.1822 27.234 63.1822 28.59C63.1822 29.958 62.7502 31.08 61.8862 31.956C61.0342 32.844 59.9542 33.288 58.6462 33.288C57.3382 33.288 56.2522 32.844 55.3882 31.956C54.5362 31.068 54.1102 29.946 54.1102 28.59ZM55.7662 28.59C55.7662 29.538 56.0422 30.306 56.5942 30.894C57.1462 31.482 57.8302 31.776 58.6462 31.776C59.4622 31.776 60.1462 31.482 60.6982 30.894C61.2502 30.306 61.5262 29.538 61.5262 28.59C61.5262 27.654 61.2502 26.892 60.6982 26.304C60.1342 25.704 59.4502 25.404 58.6462 25.404C57.8422 25.404 57.1582 25.704 56.5942 26.304C56.0422 26.892 55.7662 27.654 55.7662 28.59ZM63.4624 28.59C63.4624 27.234 63.8884 26.112 64.7404 25.224C65.6044 24.336 66.6904 23.892 67.9984 23.892C69.3064 23.892 70.3864 24.336 71.2384 25.224C72.1024 26.112 72.5344 27.234 72.5344 28.59C72.5344 29.958 72.1024 31.08 71.2384 31.956C70.3864 32.844 69.3064 33.288 67.9984 33.288C66.6904 33.288 65.6044 32.844 64.7404 31.956C63.8884 31.068 63.4624 29.946 63.4624 28.59ZM65.1184 28.59C65.1184 29.538 65.3944 30.306 65.9464 30.894C66.4984 31.482 67.1824 31.776 67.9984 31.776C68.8144 31.776 69.4984 31.482 70.0504 30.894C70.6024 30.306 70.8784 29.538 70.8784 28.59C70.8784 27.654 70.6024 26.892 70.0504 26.304C69.4864 25.704 68.8024 25.404 67.9984 25.404C67.1944 25.404 66.5104 25.704 65.9464 26.304C65.3944 26.892 65.1184 27.654 65.1184 28.59ZM77.2787 31.776C78.0947 31.776 78.7607 31.482 79.2767 30.894C79.8167 30.306 80.0867 29.538 80.0867 28.59C80.0867 27.666 79.8167 26.904 79.2767 26.304C78.7487 25.704 78.0827 25.404 77.2787 25.404C76.4867 25.404 75.8207 25.704 75.2807 26.304C74.7407 26.904 74.4707 27.666 74.4707 28.59C74.4707 29.526 74.7407 30.288 75.2807 30.876C75.8207 31.476 76.4867 31.776 77.2787 31.776ZM77.2247 37.176C76.7327 37.176 76.2707 37.11 75.8387 36.978C75.4067 36.858 75.0107 36.684 74.6507 36.456C74.3027 36.228 74.0027 35.958 73.7507 35.646C73.4987 35.334 73.3067 34.986 73.1747 34.602L74.7407 33.954C74.9207 34.47 75.2327 34.884 75.6767 35.196C76.1207 35.508 76.6367 35.664 77.2247 35.664C78.1247 35.664 78.8267 35.394 79.3307 34.854C79.8347 34.314 80.0867 33.57 80.0867 32.622V31.776H80.0147C79.7027 32.244 79.2767 32.616 78.7367 32.892C78.2087 33.156 77.6327 33.288 77.0087 33.288C75.8567 33.288 74.8667 32.838 74.0387 31.938C73.2227 31.014 72.8147 29.898 72.8147 28.59C72.8147 27.282 73.2227 26.172 74.0387 25.26C74.8667 24.348 75.8567 23.892 77.0087 23.892C77.6327 23.892 78.2087 24.03 78.7367 24.306C79.2767 24.57 79.7027 24.936 80.0147 25.404H80.0867V24.18H81.6707V32.622C81.6707 34.038 81.2687 35.148 80.4647 35.952C79.6487 36.768 78.5687 37.176 77.2247 37.176ZM84.6258 20.112V33H82.9698V20.112H84.6258ZM89.7957 33.288C88.4997 33.288 87.4317 32.844 86.5917 31.956C85.7517 31.068 85.3317 29.946 85.3317 28.59C85.3317 27.246 85.7397 26.13 86.5557 25.242C87.3717 24.342 88.4157 23.892 89.6877 23.892C90.9957 23.892 92.0337 24.318 92.8017 25.17C93.5817 26.01 93.9717 27.192 93.9717 28.716L93.9537 28.896H87.0237C87.0477 29.76 87.3357 30.456 87.8877 30.984C88.4397 31.512 89.0997 31.776 89.8677 31.776C90.9237 31.776 91.7517 31.248 92.3517 30.192L93.8277 30.912C93.4317 31.656 92.8797 32.238 92.1717 32.658C91.4757 33.078 90.6837 33.288 89.7957 33.288ZM87.1497 27.528H92.2077C92.1597 26.916 91.9077 26.412 91.4517 26.016C91.0077 25.608 90.4077 25.404 89.6517 25.404C89.0277 25.404 88.4877 25.596 88.0317 25.98C87.5877 26.364 87.2937 26.88 87.1497 27.528ZM99.9452 27.78V33H98.2892V20.112H102.681C103.797 20.112 104.745 20.484 105.525 21.228C106.317 21.972 106.713 22.878 106.713 23.946C106.713 25.038 106.317 25.95 105.525 26.682C104.757 27.414 103.809 27.78 102.681 27.78H99.9452ZM99.9452 21.696V26.196H102.717C103.377 26.196 103.923 25.974 104.355 25.53C104.799 25.086 105.021 24.558 105.021 23.946C105.021 23.346 104.799 22.824 104.355 22.38C103.923 21.924 103.377 21.696 102.717 21.696H99.9452ZM109.185 20.112V33H107.529V20.112H109.185ZM111.601 30.3C111.601 30.732 111.781 31.092 112.141 31.38C112.513 31.668 112.945 31.812 113.437 31.812C114.133 31.812 114.751 31.554 115.291 31.038C115.843 30.522 116.119 29.916 116.119 29.22C115.603 28.812 114.883 28.608 113.959 28.608C113.287 28.608 112.723 28.77 112.267 29.094C111.823 29.418 111.601 29.82 111.601 30.3ZM113.743 23.892C114.967 23.892 115.933 24.222 116.641 24.882C117.349 25.53 117.703 26.424 117.703 27.564V33H116.119V31.776H116.047C115.363 32.784 114.451 33.288 113.311 33.288C112.339 33.288 111.523 33 110.863 32.424C110.215 31.848 109.891 31.128 109.891 30.264C109.891 29.352 110.233 28.626 110.917 28.086C111.613 27.546 112.537 27.276 113.689 27.276C114.673 27.276 115.483 27.456 116.119 27.816V27.438C116.119 26.862 115.891 26.376 115.435 25.98C114.979 25.572 114.445 25.368 113.833 25.368C112.909 25.368 112.177 25.758 111.637 26.538L110.179 25.62C110.983 24.468 112.171 23.892 113.743 23.892ZM126.559 24.18L121.033 36.888H119.323L121.375 32.442L117.739 24.18H119.539L122.167 30.516H122.203L124.759 24.18H126.559Z" fill="white"/>
<path d="M46.849 10.039C46.849 10.939 46.582 11.656 46.048 12.19C45.448 12.826 44.659 13.144 43.681 13.144C42.745 13.144 41.953 12.82 41.305 12.172C40.657 11.524 40.333 10.726 40.333 9.778C40.333 8.83 40.657 8.032 41.305 7.384C41.953 6.736 42.745 6.412 43.681 6.412C44.155 6.412 44.602 6.496 45.022 6.664C45.442 6.832 45.787 7.069 46.057 7.375L45.463 7.969C45.265 7.729 45.007 7.543 44.689 7.411C44.377 7.273 44.041 7.204 43.681 7.204C42.979 7.204 42.385 7.447 41.899 7.933C41.419 8.425 41.179 9.04 41.179 9.778C41.179 10.516 41.419 11.131 41.899 11.623C42.385 12.109 42.979 12.352 43.681 12.352C44.323 12.352 44.857 12.172 45.283 11.812C45.709 11.452 45.955 10.957 46.021 10.327H43.681V9.553H46.804C46.834 9.721 46.849 9.883 46.849 10.039ZM51.257 6.556V7.348H48.323V9.391H50.969V10.165H48.323V12.208H51.257V13H47.495V6.556H51.257ZM54.209 7.348V13H53.381V7.348H51.581V6.556H56.009V7.348H54.209ZM58.9589 13H58.1309V6.556H58.9589V13ZM62.0938 7.348V13H61.2658V7.348H59.4658V6.556H63.8938V7.348H62.0938ZM72.1489 9.778C72.1489 10.732 71.8309 11.53 71.1949 12.172C70.5529 12.82 69.7669 13.144 68.8369 13.144C67.9009 13.144 67.1149 12.82 66.4789 12.172C65.8429 11.53 65.5249 10.732 65.5249 9.778C65.5249 8.824 65.8429 8.026 66.4789 7.384C67.1149 6.736 67.9009 6.412 68.8369 6.412C69.7729 6.412 70.5589 6.739 71.1949 7.393C71.8309 8.035 72.1489 8.83 72.1489 9.778ZM66.3709 9.778C66.3709 10.522 66.6049 11.137 67.0729 11.623C67.5469 12.109 68.1349 12.352 68.8369 12.352C69.5389 12.352 70.1239 12.109 70.5919 11.623C71.0659 11.143 71.3029 10.528 71.3029 9.778C71.3029 9.028 71.0659 8.413 70.5919 7.933C70.1239 7.447 69.5389 7.204 68.8369 7.204C68.1349 7.204 67.5469 7.447 67.0729 7.933C66.6049 8.419 66.3709 9.034 66.3709 9.778ZM73.594 13H72.766V6.556H73.774L76.906 11.569H76.942L76.906 10.327V6.556H77.734V13H76.87L73.594 7.744H73.558L73.594 8.986V13Z" fill="white"/>
<defs>
<linearGradient id="paint0_linear" x1="17.4732" y1="-7.55897" x2="-2.36623" y2="-2.28263" gradientUnits="userSpaceOnUse">
<stop stop-color="#00A0FF"/>
<stop offset="0.01" stop-color="#00A1FF"/>
<stop offset="0.26" stop-color="#00BEFF"/>
<stop offset="0.51" stop-color="#00D2FF"/>
<stop offset="0.76" stop-color="#00DFFF"/>
<stop offset="1" stop-color="#00E3FF"/>
</linearGradient>
<linearGradient id="paint1_linear" x1="33.83" y1="9.79969" x2="9.63996" y2="9.79969" gradientUnits="userSpaceOnUse">
<stop stop-color="#FFE000"/>
<stop offset="0.41" stop-color="#FFBD00"/>
<stop offset="0.78" stop-color="#FFA500"/>
<stop offset="1" stop-color="#FF9C00"/>
</linearGradient>
<linearGradient id="paint2_linear" x1="10.0738" y1="13.5275" x2="-5.86261" y2="40.3341" gradientUnits="userSpaceOnUse">
<stop stop-color="#FF3A44"/>
<stop offset="1" stop-color="#C31162"/>
</linearGradient>
<linearGradient id="paint3_linear" x1="0.710012" y1="4.09599" x2="7.8233" y2="16.0665" gradientUnits="userSpaceOnUse">
<stop stop-color="#32A071"/>
<stop offset="0.07" stop-color="#2DA771"/>
<stop offset="0.48" stop-color="#15CF74"/>
<stop offset="0.8" stop-color="#06E775"/>
<stop offset="1" stop-color="#00F076"/>
</linearGradient>
</defs>
</svg>
