<svg width="111" height="40" viewBox="0 0 111 40" fill="none" xmlns="http://www.w3.org/2000/svg">
<rect x="0.294861" y="0.294922" width="110.192" height="39.4231" fill="black"/>
<path fill-rule="evenodd" clip-rule="evenodd" d="M110.769 40H0V0H110.769V40ZM110.192 0.576923H0.576923V39.4231H110.192V0.576923Z" fill="#D2D2D2"/>
<rect x="9.03845" y="8.79492" width="10.7436" height="10.7436" fill="#F25022"/>
<rect x="20.8974" y="8.79492" width="10.7436" height="10.7436" fill="#7FBA00"/>
<rect x="9.03845" y="20.6411" width="10.7436" height="10.7436" fill="#00A4EF"/>
<rect x="20.8974" y="20.6411" width="10.7436" height="10.7436" fill="#FFB900"/>
<path d="M40.7188 19.625L44 28.3438L47.2734 19.625H49.8281V31H47.8594V27.25L48.0547 22.2344L44.6953 31H43.2812L39.9297 22.2422L40.125 27.25V31H38.1562V19.625H40.7188ZM53.5278 31H51.6294V22.5469H53.5278V31ZM51.5122 20.3516C51.5122 20.0599 51.6033 19.8177 51.7856 19.625C51.9731 19.4323 52.2388 19.3359 52.5825 19.3359C52.9263 19.3359 53.1919 19.4323 53.3794 19.625C53.5669 19.8177 53.6606 20.0599 53.6606 20.3516C53.6606 20.638 53.5669 20.8776 53.3794 21.0703C53.1919 21.2578 52.9263 21.3516 52.5825 21.3516C52.2388 21.3516 51.9731 21.2578 51.7856 21.0703C51.6033 20.8776 51.5122 20.638 51.5122 20.3516ZM58.5947 29.6406C59.0686 29.6406 59.4619 29.5026 59.7744 29.2266C60.0869 28.9505 60.2535 28.6094 60.2744 28.2031H62.0634C62.0426 28.7292 61.8785 29.2214 61.5713 29.6797C61.264 30.1328 60.8473 30.4922 60.3213 30.7578C59.7952 31.0234 59.2275 31.1562 58.6181 31.1562C57.4358 31.1562 56.4983 30.7734 55.8056 30.0078C55.1129 29.2422 54.7666 28.1849 54.7666 26.8359V26.6406C54.7666 25.3542 55.1103 24.3255 55.7978 23.5547C56.4853 22.7786 57.4228 22.3906 58.6103 22.3906C59.6155 22.3906 60.4332 22.6849 61.0634 23.2734C61.6989 23.8568 62.0322 24.625 62.0634 25.5781H60.2744C60.2535 25.0938 60.0869 24.6953 59.7744 24.3828C59.4671 24.0703 59.0739 23.9141 58.5947 23.9141C57.9801 23.9141 57.5061 24.138 57.1728 24.5859C56.8395 25.0286 56.6702 25.7031 56.665 26.6094V26.9141C56.665 27.8307 56.8291 28.5156 57.1572 28.9688C57.4905 29.4167 57.9697 29.6406 58.5947 29.6406ZM67.4428 24.2812C67.1928 24.2396 66.935 24.2188 66.6694 24.2188C65.7996 24.2188 65.2136 24.5521 64.9116 25.2188V31H63.0131V22.5469H64.8256L64.8725 23.4922C65.3308 22.7578 65.9662 22.3906 66.7787 22.3906C67.0496 22.3906 67.2735 22.4271 67.4506 22.5L67.4428 24.2812ZM67.5253 26.6953C67.5253 25.8672 67.6894 25.1224 68.0175 24.4609C68.3456 23.7943 68.8066 23.2839 69.4003 22.9297C69.9941 22.5703 70.6764 22.3906 71.4472 22.3906C72.5878 22.3906 73.5123 22.7578 74.2206 23.4922C74.9342 24.2266 75.3196 25.2005 75.3769 26.4141L75.3847 26.8594C75.3847 27.6927 75.2232 28.4375 74.9003 29.0938C74.5826 29.75 74.1243 30.2578 73.5253 30.6172C72.9316 30.9766 72.2441 31.1562 71.4628 31.1562C70.2701 31.1562 69.3144 30.7604 68.5956 29.9688C67.8821 29.1719 67.5253 28.112 67.5253 26.7891V26.6953ZM69.4237 26.8594C69.4237 27.7292 69.6034 28.4115 69.9628 28.9062C70.3222 29.3958 70.8222 29.6406 71.4628 29.6406C72.1034 29.6406 72.6008 29.3906 72.955 28.8906C73.3144 28.3906 73.4941 27.6589 73.4941 26.6953C73.4941 25.8411 73.3092 25.1641 72.9394 24.6641C72.5748 24.1641 72.0774 23.9141 71.4472 23.9141C70.8274 23.9141 70.3352 24.1615 69.9706 24.6562C69.606 25.1458 69.4237 25.8802 69.4237 26.8594ZM81.2484 28.7031C81.2484 28.3646 81.1078 28.1068 80.8266 27.9297C80.5505 27.7526 80.0896 27.5964 79.4437 27.4609C78.7979 27.3255 78.2589 27.1536 77.8266 26.9453C76.8786 26.487 76.4047 25.8229 76.4047 24.9531C76.4047 24.224 76.712 23.6146 77.3266 23.125C77.9411 22.6354 78.7224 22.3906 79.6703 22.3906C80.6807 22.3906 81.4958 22.6406 82.1156 23.1406C82.7406 23.6406 83.0531 24.2891 83.0531 25.0859H81.1547C81.1547 24.7214 81.0193 24.4193 80.7484 24.1797C80.4776 23.9349 80.1182 23.8125 79.6703 23.8125C79.2536 23.8125 78.9125 23.9089 78.6469 24.1016C78.3865 24.2943 78.2562 24.5521 78.2562 24.875C78.2562 25.1667 78.3786 25.3932 78.6234 25.5547C78.8682 25.7161 79.363 25.8802 80.1078 26.0469C80.8526 26.2083 81.4359 26.4036 81.8578 26.6328C82.2849 26.8568 82.6 27.1276 82.8031 27.4453C83.0115 27.763 83.1156 28.1484 83.1156 28.6016C83.1156 29.362 82.8005 29.9792 82.1703 30.4531C81.5401 30.9219 80.7146 31.1562 79.6937 31.1562C79.001 31.1562 78.3839 31.0312 77.8422 30.7812C77.3005 30.5312 76.8786 30.1875 76.5766 29.75C76.2745 29.3125 76.1234 28.8411 76.1234 28.3359H77.9672C77.9932 28.7839 78.1625 29.1302 78.475 29.375C78.7875 29.6146 79.2016 29.7344 79.7172 29.7344C80.2172 29.7344 80.5974 29.6406 80.8578 29.4531C81.1182 29.2604 81.2484 29.0104 81.2484 28.7031ZM83.9403 26.6953C83.9403 25.8672 84.1044 25.1224 84.4325 24.4609C84.7606 23.7943 85.2216 23.2839 85.8153 22.9297C86.4091 22.5703 87.0914 22.3906 87.8622 22.3906C89.0028 22.3906 89.9273 22.7578 90.6356 23.4922C91.3492 24.2266 91.7346 25.2005 91.7919 26.4141L91.7997 26.8594C91.7997 27.6927 91.6382 28.4375 91.3153 29.0938C90.9976 29.75 90.5393 30.2578 89.9403 30.6172C89.3466 30.9766 88.6591 31.1562 87.8778 31.1562C86.6851 31.1562 85.7294 30.7604 85.0106 29.9688C84.2971 29.1719 83.9403 28.112 83.9403 26.7891V26.6953ZM85.8387 26.8594C85.8387 27.7292 86.0184 28.4115 86.3778 28.9062C86.7372 29.3958 87.2372 29.6406 87.8778 29.6406C88.5184 29.6406 89.0158 29.3906 89.37 28.8906C89.7294 28.3906 89.9091 27.6589 89.9091 26.6953C89.9091 25.8411 89.7242 25.1641 89.3544 24.6641C88.9898 24.1641 88.4924 23.9141 87.8622 23.9141C87.2424 23.9141 86.7502 24.1615 86.3856 24.6562C86.021 25.1458 85.8387 25.8802 85.8387 26.8594ZM93.5931 31V23.9531H92.3041V22.5469H93.5931V21.7734C93.5931 20.8359 93.8535 20.112 94.3744 19.6016C94.8952 19.0911 95.6244 18.8359 96.5619 18.8359C96.8952 18.8359 97.2494 18.8828 97.6244 18.9766L97.5775 20.4609C97.3692 20.4193 97.127 20.3984 96.8509 20.3984C95.9447 20.3984 95.4916 20.8646 95.4916 21.7969V22.5469H97.2103V23.9531H95.4916V31H93.5931ZM100.496 20.4922V22.5469H101.988V23.9531H100.496V28.6719C100.496 28.9948 100.558 29.2292 100.683 29.375C100.814 29.5156 101.043 29.5859 101.371 29.5859C101.59 29.5859 101.811 29.5599 102.035 29.5078V30.9766C101.603 31.0964 101.186 31.1562 100.785 31.1562C99.3267 31.1562 98.5975 30.3516 98.5975 28.7422V23.9531H97.2069V22.5469H98.5975V20.4922H100.496Z" fill="white"/>
<path d="M43.0742 15.0674C42.8333 15.4124 42.4964 15.6712 42.0635 15.8438C41.6338 16.013 41.1325 16.0977 40.5596 16.0977C39.9801 16.0977 39.4658 15.9626 39.0166 15.6924C38.5674 15.4189 38.2191 15.0316 37.9717 14.5303C37.7275 14.029 37.6022 13.4479 37.5957 12.7871V12.167C37.5957 11.096 37.8447 10.266 38.3428 9.67676C38.8441 9.08757 39.5472 8.79297 40.4521 8.79297C41.1943 8.79297 41.7917 8.9834 42.2441 9.36426C42.6966 9.74186 42.9733 10.279 43.0742 10.9756H42.1367C41.9609 10.0348 41.401 9.56445 40.457 9.56445C39.8288 9.56445 39.3519 9.78581 39.0264 10.2285C38.7041 10.668 38.5413 11.306 38.5381 12.1426V12.7236C38.5381 13.5212 38.7204 14.1559 39.085 14.6279C39.4495 15.0967 39.9427 15.3311 40.5645 15.3311C40.916 15.3311 41.2236 15.292 41.4873 15.2139C41.751 15.1357 41.9691 15.0039 42.1416 14.8184V13.2217H40.4961V12.46H43.0742V15.0674ZM46.6924 16.0977C45.9762 16.0977 45.3936 15.8633 44.9443 15.3945C44.4951 14.9225 44.2705 14.2926 44.2705 13.5049V13.3389C44.2705 12.8148 44.3698 12.3477 44.5684 11.9375C44.7702 11.5241 45.0501 11.2018 45.4082 10.9707C45.7695 10.7363 46.1602 10.6191 46.5801 10.6191C47.2669 10.6191 47.8008 10.8454 48.1816 11.2979C48.5625 11.7503 48.7529 12.3981 48.7529 13.2412V13.6172H45.1738C45.1868 14.138 45.3382 14.5596 45.6279 14.8818C45.9209 15.2008 46.292 15.3604 46.7412 15.3604C47.0602 15.3604 47.3304 15.2952 47.5518 15.165C47.7731 15.0348 47.9668 14.8623 48.1328 14.6475L48.6846 15.0771C48.2419 15.7575 47.5778 16.0977 46.6924 16.0977ZM46.5801 11.3613C46.2155 11.3613 45.9095 11.4948 45.6621 11.7617C45.4147 12.0254 45.2617 12.3965 45.2031 12.875H47.8496V12.8066C47.8236 12.3477 47.6999 11.9928 47.4785 11.7422C47.2572 11.4883 46.9577 11.3613 46.5801 11.3613ZM51.0283 9.4375V10.7168H52.0146V11.415H51.0283V14.6914C51.0283 14.903 51.0723 15.0625 51.1602 15.1699C51.248 15.2741 51.3978 15.3262 51.6094 15.3262C51.7135 15.3262 51.8568 15.3066 52.0391 15.2676V16C51.8014 16.0651 51.5703 16.0977 51.3457 16.0977C50.9421 16.0977 50.6377 15.9756 50.4326 15.7314C50.2275 15.4873 50.125 15.1406 50.125 14.6914V11.415H49.1631V10.7168H50.125V9.4375H51.0283ZM56.5361 16H55.6328V10.7168H56.5361V16ZM55.5596 9.31543C55.5596 9.16895 55.6035 9.04525 55.6914 8.94434C55.7826 8.84342 55.916 8.79297 56.0918 8.79297C56.2676 8.79297 56.401 8.84342 56.4922 8.94434C56.5833 9.04525 56.6289 9.16895 56.6289 9.31543C56.6289 9.46191 56.5833 9.58398 56.4922 9.68164C56.401 9.7793 56.2676 9.82812 56.0918 9.82812C55.916 9.82812 55.7826 9.7793 55.6914 9.68164C55.6035 9.58398 55.5596 9.46191 55.5596 9.31543ZM59.2119 9.4375V10.7168H60.1982V11.415H59.2119V14.6914C59.2119 14.903 59.2559 15.0625 59.3438 15.1699C59.4316 15.2741 59.5814 15.3262 59.793 15.3262C59.8971 15.3262 60.0404 15.3066 60.2227 15.2676V16C59.985 16.0651 59.7539 16.0977 59.5293 16.0977C59.1257 16.0977 58.8213 15.9756 58.6162 15.7314C58.4111 15.4873 58.3086 15.1406 58.3086 14.6914V11.415H57.3467V10.7168H58.3086V9.4375H59.2119ZM64.1826 16V11.415H63.3477V10.7168H64.1826V10.1748C64.1826 9.6084 64.334 9.17057 64.6367 8.86133C64.9395 8.55208 65.3675 8.39746 65.9209 8.39746C66.1292 8.39746 66.3359 8.42513 66.541 8.48047L66.4922 9.21289C66.3392 9.18359 66.1764 9.16895 66.0039 9.16895C65.7109 9.16895 65.4847 9.25521 65.3252 9.42773C65.1657 9.59701 65.0859 9.84115 65.0859 10.1602V10.7168H66.2139V11.415H65.0859V16H64.1826ZM69.7686 11.5273C69.6318 11.5046 69.4837 11.4932 69.3242 11.4932C68.7318 11.4932 68.3298 11.7454 68.1182 12.25V16H67.2148V10.7168H68.0938L68.1084 11.3271C68.4046 10.8551 68.8245 10.6191 69.3682 10.6191C69.5439 10.6191 69.6774 10.6419 69.7686 10.6875V11.5273ZM70.2666 13.3096C70.2666 12.792 70.3675 12.3265 70.5693 11.9131C70.7744 11.4997 71.0576 11.1807 71.4189 10.9561C71.7835 10.7314 72.1986 10.6191 72.6641 10.6191C73.3835 10.6191 73.9645 10.8682 74.4072 11.3662C74.8532 11.8643 75.0762 12.5267 75.0762 13.3535V13.417C75.0762 13.9313 74.9769 14.3936 74.7783 14.8037C74.583 15.2106 74.3014 15.528 73.9336 15.7559C73.569 15.9837 73.1491 16.0977 72.6738 16.0977C71.9577 16.0977 71.3766 15.8486 70.9307 15.3506C70.488 14.8525 70.2666 14.1934 70.2666 13.373V13.3096ZM71.1748 13.417C71.1748 14.0029 71.3099 14.4733 71.5801 14.8281C71.8535 15.1829 72.2181 15.3604 72.6738 15.3604C73.1328 15.3604 73.4974 15.1813 73.7676 14.8232C74.0378 14.4619 74.1729 13.9574 74.1729 13.3096C74.1729 12.7301 74.0345 12.2614 73.7578 11.9033C73.4844 11.542 73.1198 11.3613 72.6641 11.3613C72.2181 11.3613 71.8584 11.5387 71.585 11.8936C71.3115 12.2484 71.1748 12.7562 71.1748 13.417ZM77.0586 10.7168L77.083 11.3027C77.4704 10.847 77.9928 10.6191 78.6504 10.6191C79.3893 10.6191 79.8923 10.9023 80.1592 11.4688C80.335 11.2148 80.5628 11.0098 80.8428 10.8535C81.126 10.6973 81.4596 10.6191 81.8438 10.6191C83.0026 10.6191 83.5918 11.2327 83.6113 12.46V16H82.708V12.5137C82.708 12.1361 82.6217 11.8545 82.4492 11.6689C82.2767 11.4801 81.987 11.3857 81.5801 11.3857C81.2448 11.3857 80.9665 11.4867 80.7451 11.6885C80.5238 11.887 80.3952 12.1556 80.3594 12.4941V16H79.4512V12.5381C79.4512 11.7699 79.0752 11.3857 78.3232 11.3857C77.7308 11.3857 77.3255 11.638 77.1074 12.1426V16H76.2041V10.7168H77.0586Z" fill="white"/>
</svg>
